<?xml version="1.0" encoding="utf-8"?>
<!-- Generator: Adobe Illustrator 21.0.0, SVG Export Plug-In . SVG Version: 6.00 Build 0)  -->
<svg version="1.1" id="Layer_1" xmlns="http://www.w3.org/2000/svg" xmlns:xlink="http://www.w3.org/1999/xlink" x="0px" y="0px"
	 viewBox="0 0 512 512" style="enable-background:new 0 0 512 512;" xml:space="preserve">
<style type="text/css">
	.st0{fill:#E6E7E8;stroke:#231F20;stroke-linecap:round;stroke-miterlimit:10;}
	.st1{fill:#E6E7E8;}
	.st2{fill:none;stroke:#231F20;stroke-linecap:round;stroke-miterlimit:10;}
</style>
<g id="XMLID_2_">
	<polygon class="st0" points="133.2,208.2 40.8,412.4 133.2,412.4 226.3,412.4 378.2,412.4 378.4,413.1 471.1,207.9 378.3,207.9 
		285.7,207.9 133.8,207.9 133.6,207.2 133.3,207.9 	"/>
	<polygon class="st0" points="133.3,207.9 133.2,208.2 133.2,207.9 	"/>
</g>
<g id="XMLID_1_">
	<g>
		<polygon class="st1" points="104.2,128.5 86.3,128.5 86.3,182.3 97.1,182.3 51.3,261.6 51.3,127.6 104.8,127.6 		"/>
		<polygon class="st1" points="128.2,128.5 117.4,147.1 93.5,147.1 104.2,128.5 		"/>
		<polygon class="st1" points="237.7,128.5 248.5,147.1 117.4,147.1 128.2,128.5 		"/>
		<polygon class="st1" points="128.2,128.5 128.7,127.6 104.8,127.6 121.3,98.9 220.6,98.9 237.7,128.5 		"/>
		<polygon class="st1" points="104.2,128.5 104.8,127.6 128.7,127.6 128.2,128.5 		"/>
		<polygon class="st1" points="86.3,128.5 104.2,128.5 93.5,147.1 117.4,147.1 97.1,182.3 86.3,182.3 		"/>
		<polygon class="st1" points="237.7,128.5 409.3,128.5 409.3,182.3 97.1,182.3 117.4,147.1 248.5,147.1 		"/>
	</g>
	<g>
		<line class="st2" x1="104.8" y1="127.6" x2="51.3" y2="127.6"/>
		<line class="st2" x1="51.3" y1="261.6" x2="97.1" y2="182.3"/>
		<line class="st2" x1="237.7" y1="128.5" x2="220.6" y2="98.9"/>
		<line class="st2" x1="121.3" y1="98.9" x2="104.8" y2="127.6"/>
		<polyline class="st2" points="237.7,128.5 409.3,128.5 409.3,182.3 97.1,182.3 		"/>
		<line class="st2" x1="51.3" y1="127.6" x2="51.3" y2="261.6"/>
		<line class="st2" x1="220.6" y1="98.9" x2="121.3" y2="98.9"/>
	</g>
</g>
</svg>
