<?xml version="1.0" encoding="utf-8"?>
<!-- Generator: Adobe Illustrator 21.0.0, SVG Export Plug-In . SVG Version: 6.00 Build 0)  -->
<svg version="1.1" id="Layer_1" xmlns="http://www.w3.org/2000/svg" xmlns:xlink="http://www.w3.org/1999/xlink" x="0px" y="0px"
	 viewBox="0 0 512 512" style="enable-background:new 0 0 512 512;" xml:space="preserve">
<style type="text/css">
	.st0{fill:#FFFFFF;}
</style>
<g id="XMLID_1_">
	<polygon class="st0" points="288.4,135.8 288.4,73.2 224.1,73.2 224.1,135.4 224.1,252.4 288.4,252.4 	"/>
	<path class="st0" d="M330.8,82.5C396.3,111.2,442,176.6,442,252.7c0,102.6-83.2,185.8-185.8,185.8S70.5,355.3,70.5,252.7
		c0-76.1,45.8-141.6,111.4-170.3v73.9c-28.6,22.1-47,56.7-47,95.6c0,66.7,54,120.7,120.7,120.7S376.3,318.7,376.3,252
		c0-38.2-17.8-72.3-45.5-94.4V82.5z"/>
</g>
</svg>
